Patient4_TMGait_0pt8_01_left_02_GRF.mot
version=1
nRows=72
nColumns=19
inDegrees=no
endheader
time	F1x	F1y	F1z	M1x	M1y	M1z	F2x	F2y	F2z	M2x	M2y	M2z	EC1x	EC1y	EC1z	EC2x	EC2y	EC2z
1.29	4.6751	2.4731	9.788	-3.7464	-4.5629	-2.5975	-35.4906	737.927	-65.4657	320.8743	71.3747	775.1321	-0.0592	0.0182	-0.0073	-0.0462	0.0165	0.9585
1.3016	3.1005	2.589	6.7266	-2.8638	-3.2352	-0.64732	-31.3437	736.1962	-63.7289	317.9266	70.3292	769.5413	-0.0592	0.0182	-0.0073	-0.0462	0.0165	0.9585
1.3131	1.7541	2.6907	4.1373	-2.1252	-2.1087	0.99494	-27.2308	733.6386	-62.0877	314.8839	68.9341	762.5608	-0.0592	0.0182	-0.0073	-0.0462	0.0165	0.9585
1.3247	0.69345	2.7991	2.1592	-1.5746	-1.25	2.2813	-23.3522	730.8327	-60.6219	312.083	67.2449	754.9561	-0.0592	0.0182	-0.0073	-0.0462	0.0165	0.9585
1.3363	-0.045678	2.9308	0.78768	-1.2106	-0.65279	3.2159	-19.8095	728.4625	-59.3301	309.8031	65.3283	747.5605	-0.0592	0.0182	-0.0073	-0.0462	0.0165	0.9585
1.3479	-0.53316	3.0907	-0.072108	-1.0052	-0.28301	3.8805	-16.6134	727.0743	-58.2034	308.2103	63.2743	741.0211	-0.0592	0.0182	-0.0073	-0.0462	0.0165	0.9585
1.3594	-0.81894	3.254	-0.53353	-0.9159	-0.094627	4.3071	-13.7355	727.0075	-57.2446	307.3567	61.1819	735.7426	-0.0592	0.0182	-0.0073	-0.0462	0.0165	0.9585
1.371	-0.99349	3.4155	-0.71664	-0.90368	-0.04395	4.5716	-11.1022	728.3273	-56.4691	307.1807	59.141	731.8161	-0.0592	0.0182	-0.0073	-0.0462	0.0165	0.9585
1.3826	-1.111	3.5152	-0.71204	-0.92074	-0.10045	4.6473	-8.6148	730.8403	-55.8917	307.5286	57.2172	729.0462	-0.0592	0.0182	-0.0073	-0.0462	0.0165	0.9585
1.3941	-1.2414	3.4969	-0.59543	-0.92543	-0.24247	4.5273	-6.1656	734.1797	-55.4987	308.1972	55.4283	727.0485	-0.0592	0.0182	-0.0073	-0.0462	0.0165	0.9585
1.4057	-1.3943	3.2667	-0.41288	-0.87157	-0.45216	4.1266	-3.6813	737.8593	-55.2666	308.9676	53.772	725.3247	-0.0592	0.0182	-0.0073	-0.0462	0.0165	0.9585
1.4173	-1.5994	2.7304	-0.19646	-0.71581	-0.71863	3.3742	-1.0854	741.4582	-55.1437	309.6726	52.1993	723.448	-0.0592	0.0182	-0.0073	-0.0462	0.0165	0.9585
1.4289	-1.8152	1.7787	0.033127	-0.41492	-1.0103	2.15	1.6501	744.6561	-55.0804	310.2058	50.6641	721.1068	-0.0592	0.0182	-0.0073	-0.0462	0.0165	0.9585
1.4404	-2.0004	0.34641	0.24504	0.058902	-1.2762	0.3864	4.5235	747.2167	-55.028	310.507	49.1196	718.0794	-0.0592	0.0182	-0.0073	-0.0462	0.0165	0.9585
1.452	-2.0575	-1.5795	0.40844	0.71244	-1.4451	-1.9547	7.5408	749.026	-54.9612	310.5581	47.5361	714.2831	-0.0592	0.0182	-0.0073	-0.0462	0.0165	0.9585
1.4636	-1.8769	-3.8925	0.47631	1.5127	-1.4226	-4.7415	10.7039	750.022	-54.8773	310.3572	45.8986	709.6753	-0.0592	0.0182	-0.0073	-0.0462	0.0165	0.9585
1.4751	-1.2696	-6.3345	0.39785	2.3665	-1.0852	-7.6851	14.0313	750.1875	-54.813	309.9037	44.2263	704.255	-0.0592	0.0182	-0.0073	-0.0462	0.0165	0.9585
1.4867	-0.042626	-8.4116	0.10181	3.0929	-0.27981	-10.188	17.5101	749.4477	-54.8355	309.1631	42.5758	697.9839	-0.0592	0.0182	-0.0073	-0.0462	0.0165	0.9585
1.4983	2.0534	-9.2952	-0.48585	3.3865	1.172	-11.2777	21.0951	747.6559	-55.0166	308.0651	41.018	690.7649	-0.0592	0.0182	-0.0073	-0.0462	0.0165	0.9585
1.5099	5.2033	-7.7596	-1.4417	2.7953	3.4291	-9.5007	24.7327	744.6255	-55.4119	306.5214	39.6139	682.4761	-0.0592	0.0182	-0.0073	-0.0462	0.0165	0.9585
1.5214	9.497	-2.1422	-2.8131	0.71654	6.5784	-2.922	28.3571	740.0966	-56.0131	304.4216	38.375	672.9328	-0.0592	0.0182	-0.0073	-0.0462	0.0165	0.9585
1.533	14.7751	9.5905	-4.5968	-3.5766	10.5571	10.8515	31.9149	733.7522	-56.7316	301.6335	37.2448	661.9036	-0.0592	0.0182	-0.0073	-0.0462	0.0165	0.9585
1.5446	20.5042	29.5905	-6.6809	-10.8484	15.0372	34.3471	35.3772	725.122	-57.3855	297.9699	36.0813	649.0186	-0.0592	0.0182	-0.0073	-0.0462	0.0165	0.9585
1.5561	25.5571	59.7297	-8.79	-21.7467	19.2835	69.795	38.7371	713.5641	-57.7328	293.175	34.6961	633.7698	-0.0592	0.0182	-0.0073	-0.0462	0.0165	0.9585
1.5677	28.0683	100.8434	-10.3912	-36.5378	21.9986	118.2183	41.9887	698.2571	-57.5093	286.9197	32.8854	615.5139	-0.0592	0.0182	-0.0073	-0.0462	0.0165	0.9585
1.5793	25.684	152.4364	-10.7353	-54.9905	21.5051	179.1125	45.0958	678.2475	-56.474	278.8141	30.4747	593.5334	-0.0592	0.0182	-0.0073	-0.0462	0.0165	0.9585
1.5909	17.3367	213.317	-9.1245	-76.6017	16.6218	251.167	47.9762	652.527	-54.455	268.4363	27.364	567.0585	-0.0592	0.0182	-0.0073	-0.0462	0.0165	0.9585
1.6024	3.8478	281.5264	-4.9942	-100.5708	6.9861	332.0473	50.4671	620.1559	-51.3629	255.3761	23.5551	535.3743	-0.0592	0.0182	-0.0073	-0.0462	0.0165	0.9585
1.614	-13.1073	352.9276	2.044	-125.3709	-7.2189	416.6203	52.311	580.3306	-47.2438	239.2725	19.1988	497.8843	-0.0592	0.0182	-0.0073	-0.0462	0.0165	0.9585
1.6256	-31.294	422.5731	11.5968	-149.2824	-24.6579	498.6484	53.1989	532.6155	-42.2532	219.9127	14.5566	454.3032	-0.0592	0.0182	-0.0073	-0.0462	0.0165	0.9585
1.6371	-48.5679	487.5514	22.148	-171.3597	-42.7904	574.3155	52.7896	477.3034	-36.611	197.3805	9.9509	404.9565	-0.0592	0.0182	-0.0073	-0.0462	0.0165	0.9585
1.6487	-63.6422	547.3087	32.3888	-191.4726	-59.6035	642.7822	50.7985	415.6143	-30.6432	172.1482	5.7616	350.9105	-0.0592	0.0182	-0.0073	-0.0462	0.0165	0.9585
1.6603	-75.6684	602.0247	41.2427	-209.7342	-73.5985	704.182	47.0582	349.7701	-24.6956	145.109	2.3264	294.0587	-0.0592	0.0182	-0.0073	-0.0462	0.0165	0.9585
1.6719	-84.2267	651.3384	48.3199	-226.0249	-84.18	758.1644	41.624	282.7717	-19.1461	117.4998	-0.083028	236.8752	-0.0592	0.0182	-0.0073	-0.0462	0.0165	0.9585
1.6834	-89.1758	694.3648	53.6316	-240.0027	-91.371	803.8203	34.8632	218.1707	-14.2814	90.79	-1.4039	182.2485	-0.0592	0.0182	-0.0073	-0.0462	0.0165	0.9585
1.695	-90.7715	730.1557	57.7486	-251.2657	-95.9427	840.3153	27.5076	159.3829	-10.2532	66.411	-1.8249	132.879	-0.0592	0.0182	-0.0073	-0.0462	0.0165	0.9585
1.7066	-89.5628	758.1249	61.2516	-259.5463	-98.7835	867.2544	20.3738	109.0272	-7.0768	45.4713	-1.6677	90.8138	-0.0592	0.0182	-0.0073	-0.0462	0.0165	0.9585
1.7181	-86.2769	778.1524	64.5798	-264.7726	-100.6718	884.8552	14.0852	68.4871	-4.6364	28.5776	-1.2632	57.0726	-0.0592	0.0182	-0.0073	-0.0462	0.0165	0.9585
1.7297	-81.6224	790.5052	68.0054	-267.0605	-102.172	893.6994	8.8833	37.997	-2.7938	15.8489	-0.81	31.7824	-0.0592	0.0182	-0.0073	-0.0462	0.0165	0.9585
1.7413	-76.2256	795.7203	71.4547	-266.6757	-103.4377	894.579	4.85	16.8398	-1.444	7.0012	-0.41118	14.2942	-0.0592	0.0182	-0.0073	-0.0462	0.0165	0.9585
1.7529	-70.5181	794.6904	74.7127	-264.0384	-104.3905	888.6104	1.9403	3.6227	-0.52199	1.4596	-0.099214	3.4408	-0.0592	0.0182	-0.0073	-0.0462	0.0165	0.9585
1.7644	-64.8137	788.6129	77.3139	-259.6925	-104.6524	877.1605	0.05835	-3.4792	0.032832	-1.5275	0.1217	-2.341	-0.0592	0.0182	-0.0073	-0.0462	0.0165	0.9585
1.776	-59.2937	778.7479	78.9846	-254.1866	-103.9887	861.6492	-1.0281	-6.2975	0.30249	-2.7213	0.27101	-4.5863	-0.0592	0.0182	-0.0073	-0.0462	0.0165	0.9585
1.7876	-54.0414	766.2708	79.5686	-248.0116	-102.2636	843.3702	-1.5155	-6.4507	0.38169	-2.7892	0.35042	-4.671	-0.0592	0.0182	-0.0073	-0.0462	0.0165	0.9585
1.7991	-49.1063	752.2224	79.2245	-241.5683	-99.6575	823.4351	-1.6358	-5.1547	0.334	-2.242	0.39407	-3.5747	-0.0592	0.0182	-0.0073	-0.0462	0.0165	0.9585
1.8107	-44.5027	737.5871	78.1433	-235.2078	-96.3851	802.8884	-1.5254	-3.2934	0.22843	-1.4468	0.40342	-2.0463	-0.0592	0.0182	-0.0073	-0.0462	0.0165	0.9585
1.8223	-40.229	723.3961	76.5471	-229.27	-92.6885	782.7997	-1.3343	-1.4028	0.09434	-0.6337	0.41548	-0.51167	-0.0592	0.0182	-0.0073	-0.0462	0.0165	0.9585
1.8339	-36.2924	710.6948	74.6224	-224.0835	-88.7708	764.2363	-1.108	0.21279	-0.032329	0.069428	0.42654	0.76709	-0.0592	0.0182	-0.0073	-0.0462	0.0165	0.9585
1.8454	-32.6559	700.4626	72.4877	-219.9432	-84.754	748.1982	-0.92053	1.4629	-0.14568	0.61553	0.45644	1.7472	-0.0592	0.0182	-0.0073	-0.0462	0.0165	0.9585
1.857	-29.2978	693.4539	70.3057	-217.0631	-80.7956	735.4578	-0.76682	2.337	-0.23135	0.99919	0.48815	2.4157	-0.0592	0.0182	-0.0073	-0.0462	0.0165	0.9585
1.8686	-26.1827	690.1063	68.1801	-215.555	-76.9843	726.426	-0.67008	2.9159	-0.28653	1.246	0.51857	2.8809	-0.0592	0.0182	-0.0073	-0.0462	0.0165	0.9585
1.8801	-23.2197	690.5309	66.2609	-215.4219	-73.4339	721.1741	-0.59544	3.2525	-0.30724	1.3824	0.52702	3.1767	-0.0592	0.0182	-0.0073	-0.0462	0.0165	0.9585
1.8917	-20.311	694.5232	64.6058	-216.5676	-70.1621	719.4121	-0.55544	3.4477	-0.29472	1.4482	0.51135	3.4076	-0.0592	0.0182	-0.0073	-0.0462	0.0165	0.9585
1.9033	-17.3365	701.5839	63.2683	-218.8007	-67.1774	720.5638	-0.51367	3.5458	-0.25795	1.4699	0.47123	3.5776	-0.0592	0.0182	-0.0073	-0.0462	0.0165	0.9585
1.9149	-14.187	710.9281	62.2493	-221.8434	-64.4456	723.7951	-0.4904	3.6133	-0.20166	1.4756	0.41756	3.7479	-0.0592	0.0182	-0.0073	-0.0462	0.0165	0.9585
1.9264	-10.8041	721.5285	61.5472	-225.3464	-61.9554	728.0472	-0.45365	3.6642	-0.14065	1.4775	0.357	3.9068	-0.0592	0.0182	-0.0073	-0.0462	0.0165	0.9585
1.938	-7.1695	732.2385	61.178	-228.9268	-59.7275	732.1839	-0.4359	3.7252	-0.088189	1.486	0.31066	4.0824	-0.0592	0.0182	-0.0073	-0.0462	0.0165	0.9585
1.9496	-3.2657	741.8598	61.1085	-232.1961	-57.7403	735.0236	-0.40665	3.7762	-0.057075	1.4967	0.28495	4.2119	-0.0592	0.0182	-0.0073	-0.0462	0.0165	0.9585
1.9611	0.90051	749.3173	61.3114	-234.8148	-55.9777	735.5271	-0.40256	3.7956	-0.05923	1.4998	0.29965	4.2851	-0.0592	0.0182	-0.0073	-0.0462	0.0165	0.9585
1.9727	5.3903	753.7869	61.6327	-236.5407	-54.2859	732.8988	-0.39104	3.7123	-0.10596	1.4682	0.35762	4.2101	-0.0592	0.0182	-0.0073	-0.0462	0.0165	0.9585
1.9843	10.2599	754.8263	61.945	-237.2583	-52.5262	726.7243	-0.40694	3.469	-0.19231	1.3739	0.46074	3.9353	-0.0592	0.0182	-0.0073	-0.0462	0.0165	0.9585
1.9959	15.5783	752.4485	62.0617	-236.9995	-50.4983	717.022	-0.42123	2.9544	-0.32961	1.1724	0.61466	3.3162	-0.0592	0.0182	-0.0073	-0.0462	0.0165	0.9585
2.0074	21.3753	747.1668	61.8885	-235.9409	-48.0964	704.3475	-0.46146	2.0875	-0.50039	0.82412	0.81236	2.2806	-0.0592	0.0182	-0.0073	-0.0462	0.0165	0.9585
2.019	27.6277	739.9839	61.3548	-234.3972	-45.2487	689.7186	-0.48395	0.75289	-0.69777	0.28283	1.0354	0.69772	-0.0592	0.0182	-0.0073	-0.0462	0.0165	0.9585
2.0306	34.259	732.2454	60.5154	-232.7614	-42.0057	674.5019	-0.49252	-1.0859	-0.88927	-0.47051	1.2417	-1.4596	-0.0592	0.0182	-0.0073	-0.0462	0.0165	0.9585
2.0421	41.1689	725.4108	59.5265	-231.433	-38.5127	660.172	-0.40804	-3.4251	-1.0261	-1.4284	1.3466	-4.2143	-0.0592	0.0182	-0.0073	-0.0462	0.0165	0.9585
2.0537	48.1679	720.7606	58.6461	-230.7317	-35.0275	648.0487	-0.20596	-6.0701	-1.039	-2.5104	1.2548	-7.3256	-0.0592	0.0182	-0.0073	-0.0462	0.0165	0.9585
2.0653	55.0197	719.1436	58.1877	-230.8311	-31.8768	639.0622	0.20807	-8.6467	-0.8192	-3.5491	0.80739	-10.3683	-0.0592	0.0182	-0.0073	-0.0462	0.0165	0.9585
2.0769	61.431	720.806	58.3977	-231.7181	-29.3584	633.5853	0.87216	-10.4097	-0.24309	-4.2301	-0.16186	-12.4547	-0.0592	0.0182	-0.0073	-0.0462	0.0165	0.9585
2.0884	67.0734	725.2917	59.4491	-233.1809	-27.7408	631.3313	1.8578	-10.2171	0.84529	-4.0674	-1.857	-12.2642	-0.0592	0.0182	-0.0073	-0.0462	0.0165	0.9585
2.1	71.6762	731.6077	61.2916	-234.8775	-27.0954	631.5006	3.1486	-6.3987	2.589	-2.369	-4.4353	-7.8341	-0.0592	0.0182	-0.0073	-0.0462	0.0165	0.9585
2.1116	75.0597	738.4161	63.7291	-236.4025	-27.3526	632.9434	4.6942	3.1439	5.1032	1.737	-7.992	3.2697	-0.0592	0.0182	-0.0073	-0.0462	0.0165	0.9585
